<svg xmlns="http://www.w3.org/2000/svg" width="24" height="24" viewBox="0 0 24 24">
  <g id="linkedin-blue" transform="translate(14607 -1649)">
    <circle id="Ellipse_3" data-name="Ellipse 3" cx="12" cy="12" r="12" transform="translate(-14607 1649)" fill="#152348"/>
    <g id="Group_466" data-name="Group 466" transform="translate(-14600.603 1655.457)">
      <path id="Path_233" data-name="Path 233" d="M478.2,209.464h2.29v7.365H478.2Zm1.148-3.664a1.325,1.325,0,1,1-1.334,1.325,1.326,1.326,0,0,1,1.334-1.325" transform="translate(-478.01 -205.8)" fill="#fff"/>
      <path id="Path_234" data-name="Path 234" d="M491.62,218.168h2.193v1.005h0a2.393,2.393,0,0,1,2.17-1.188c2.313,0,2.744,1.525,2.744,3.51v4.038h-2.233v-3.581c0-.854,0-1.953-1.188-1.953s-1.374.934-1.374,1.85V225.5H491.62Z" transform="translate(-487.734 -214.504)" fill="#fff"/>
    </g>
  </g>
</svg>
