<svg xmlns="http://www.w3.org/2000/svg" viewBox="0 0 600 600"><defs><style>.cls-1{fill:#142447;}.cls-2{fill:#fff;}.cls-3{fill:#e53021;}</style></defs><g id="Layer_2" data-name="Layer 2"><g id="Layer_1-2" data-name="Layer 1"><rect class="cls-1" width="600" height="600"/><polygon class="cls-2" points="87.01 341.86 87.01 206.87 63.01 206.87 63.01 191.86 126.01 191.86 126.01 206.87 102 206.87 102 266.87 192 266.87 192 206.87 168.02 206.87 168.02 191.86 231.02 191.86 231.02 206.87 207.01 206.87 207.01 341.86 231.02 341.86 231.02 356.85 168.02 356.85 168.02 341.86 192 341.86 192 281.86 102 281.86 102 341.86 126.01 341.86 126.01 356.85 63.01 356.85 63.01 341.86 87.01 341.86"/><polygon class="cls-2" points="405.01 341.86 405.01 356.85 339.01 356.85 339.01 341.86 360.61 341.86 308.51 277.1 282 302.25 282 341.86 306.01 341.86 306.01 356.85 243.01 356.85 243.01 341.86 264.02 341.86 264.02 206.87 243.01 206.87 243.01 191.86 306.01 191.86 306.01 206.87 282 206.87 282 276.45 357.61 206.87 336.01 206.87 336.01 191.86 399.01 191.86 399.01 206.87 382.82 206.87 323.41 263.26 385.2 341.86 405.01 341.86"/><path class="cls-2" d="M417,356.86v-48H434.4l1.8,9.59c6.61,21,27.65,24.26,45.6,23.41,12.85-.63,19.81-4.2,24.6-8.4,6.13-5.37,9.6-11.4,9.6-21,0-6.61-4.33-15.42-9.6-19.19-6.13-4.42-14.4-7.61-28.8-10.81-16.19-3.59-28-5.39-36-9A45.08,45.08,0,0,1,423,257.86c-4.75-6.71-6-12-6-24,0-14.23,3.42-25.71,13.8-34.2s22.12-12,37.8-12c14.86,0,39,8.26,50.39,19.81v-15.6h12v48H516l-2.4-10.2c-6.59-19.19-26.45-25.19-43.2-25.19-10.14,0-19.76,3.52-25.19,7.79s-9,12.6-9,18.6c0,9,2.41,13.81,5.26,17.93,2.49,3.63,6.27,6,10.55,7.61s12.4,3.87,25.59,6.26c16.57,3,25.62,6.83,33,10.19s15,10.2,17.4,13.81c5.29,7.92,7.2,15,7.2,25.21,0,14.47-2.39,25.19-12.59,34.18-11,9.68-23.13,13.81-39.6,13.81-25.8,0-40.48-8.66-54-19.8v16.8Z"/><path class="cls-2" d="M79.27,410l-4-5.87H70.76V410H65.91v-21H75a11.8,11.8,0,0,1,4.84.93,7.21,7.21,0,0,1,0,13.32L84.51,410Zm-1.22-16.11a5.16,5.16,0,0,0-3.33-.94h-4v7.31h4a5.1,5.1,0,0,0,3.33-.94,3.78,3.78,0,0,0,0-5.43"/><polygon class="cls-2" points="92.67 388.94 92.67 409.95 108.92 409.95 108.92 406.04 97.48 406.04 97.48 401.17 107.26 401.17 107.26 397.4 97.48 397.4 97.48 392.85 108.53 392.85 108.53 388.94 92.67 388.94"/><path class="cls-2" d="M132,405.43h-9.75L120.4,410h-5l9.36-21h4.8l9.4,21h-5.11Zm-1.54-3.68-3.33-8-3.33,8Z"/><polygon class="cls-2" points="145.97 388.94 145.97 409.95 161.37 409.95 161.37 405.99 150.84 405.99 150.84 388.94 145.97 388.94"/><polygon class="cls-2" points="182.78 388.94 182.78 409.95 199.03 409.95 199.03 406.04 187.62 406.04 187.62 401.17 197.37 401.17 197.37 397.4 187.62 397.4 187.62 392.85 198.66 392.85 198.66 388.94 182.78 388.94"/><path class="cls-2" d="M209.9,409.62a11,11,0,0,1-3.74-1.75l1.64-3.67a10.88,10.88,0,0,0,3.22,1.59,11.78,11.78,0,0,0,3.72.61,6,6,0,0,0,3.06-.61,1.89,1.89,0,0,0,1-1.64,1.59,1.59,0,0,0-.59-1.24,4.27,4.27,0,0,0-1.5-.8c-.61-.2-1.45-.43-2.48-.67a34.68,34.68,0,0,1-3.93-1.12,6.52,6.52,0,0,1-2.63-1.84,5,5,0,0,1-1.09-3.37,6,6,0,0,1,1-3.31,6.75,6.75,0,0,1,3-2.35,12.3,12.3,0,0,1,4.87-.87,16.56,16.56,0,0,1,3.92.48,11.71,11.71,0,0,1,3.37,1.37l-1.5,3.7a11.6,11.6,0,0,0-5.83-1.64,5.62,5.62,0,0,0-3,.64,2,2,0,0,0-1,1.74,1.69,1.69,0,0,0,1.13,1.61,16.06,16.06,0,0,0,3.43,1,33.64,33.64,0,0,1,3.94,1.15,6.37,6.37,0,0,1,2.61,1.79,4.78,4.78,0,0,1,1.11,3.33,5.69,5.69,0,0,1-1,3.28,6.74,6.74,0,0,1-3,2.37,12.38,12.38,0,0,1-4.88.87,17.1,17.1,0,0,1-4.81-.69"/><polygon class="cls-2" points="229.59 388.94 229.59 392.9 236.31 392.9 236.31 409.95 241.18 409.95 241.18 392.9 247.88 392.9 247.88 388.94 229.59 388.94"/><path class="cls-2" d="M266.84,405.43h-9.75L255.22,410h-5l9.36-21h4.8l9.4,21h-5.11Zm-1.54-3.68-3.33-8-3.33,8Z"/><polygon class="cls-2" points="276.11 388.94 276.11 392.9 282.85 392.9 282.85 409.95 287.7 409.95 287.7 392.9 294.42 392.9 294.42 388.94 276.11 388.94"/><polygon class="cls-2" points="301.62 388.94 301.62 409.95 317.87 409.95 317.87 406.04 306.45 406.04 306.45 401.17 316.2 401.17 316.2 397.4 306.45 397.4 306.45 392.85 317.5 392.85 317.5 388.94 301.62 388.94"/><path class="cls-2" d="M354.28,405.43h-9.76L342.65,410h-5l9.37-21h4.79l9.4,21h-5.1Zm-1.54-3.68-3.33-8-3.33,8Z"/><path class="cls-2" d="M368.25,388.94h9.53a13.36,13.36,0,0,1,6.05,1.31,9.8,9.8,0,0,1,4.07,3.67,10.39,10.39,0,0,1,1.46,5.51A10.5,10.5,0,0,1,387.9,405a9.78,9.78,0,0,1-4.07,3.66,13.49,13.49,0,0,1-6.05,1.32h-9.53Zm9.29,17a7,7,0,0,0,5-1.76,6.93,6.93,0,0,0,0-9.51,7,7,0,0,0-5-1.74H373.1v13Z"/><polygon class="cls-2" points="417 388.94 407.92 409.95 403.12 409.95 394.05 388.94 399.31 388.94 405.69 403.93 412.17 388.94 417 388.94"/><rect class="cls-2" x="424.02" y="388.94" width="4.87" height="21.01"/><path class="cls-2" d="M440.85,409.62a11,11,0,0,1-3.74-1.75l1.64-3.67a10.88,10.88,0,0,0,3.22,1.59,11.78,11.78,0,0,0,3.72.61,6,6,0,0,0,3.06-.61,1.89,1.89,0,0,0,1-1.64,1.59,1.59,0,0,0-.59-1.24,4.27,4.27,0,0,0-1.5-.8c-.61-.2-1.45-.43-2.48-.67a34.68,34.68,0,0,1-3.93-1.12,6.52,6.52,0,0,1-2.63-1.84,5,5,0,0,1-1.09-3.37,6,6,0,0,1,1-3.31,6.75,6.75,0,0,1,3-2.35,12.3,12.3,0,0,1,4.87-.87,16.56,16.56,0,0,1,3.92.48,11.71,11.71,0,0,1,3.37,1.37l-1.5,3.7a11.6,11.6,0,0,0-5.83-1.64,5.62,5.62,0,0,0-3,.64,2,2,0,0,0-1,1.74,1.69,1.69,0,0,0,1.13,1.61,16.06,16.06,0,0,0,3.43,1,34.84,34.84,0,0,1,3.94,1.15,6.37,6.37,0,0,1,2.61,1.79,4.78,4.78,0,0,1,1.11,3.33,5.69,5.69,0,0,1-1,3.28,6.74,6.74,0,0,1-3,2.37,12.38,12.38,0,0,1-4.88.87,17.1,17.1,0,0,1-4.81-.69"/><path class="cls-2" d="M466.9,408.9a10.41,10.41,0,0,1-4.11-3.89,11.22,11.22,0,0,1,0-11.14A10.34,10.34,0,0,1,466.9,390a13,13,0,0,1,11.77,0,10.73,10.73,0,0,1,0,18.92,13.07,13.07,0,0,1-11.77,0m9.25-3.6a6.11,6.11,0,0,0,2.35-2.38,7.55,7.55,0,0,0,0-7,6.14,6.14,0,0,0-2.35-2.39,6.7,6.7,0,0,0-3.37-.85,6.62,6.62,0,0,0-3.35.85,6.2,6.2,0,0,0-2.35,2.39,7.39,7.39,0,0,0,0,7,6.18,6.18,0,0,0,2.35,2.38,6.53,6.53,0,0,0,3.35.86,6.6,6.6,0,0,0,3.37-.86"/><path class="cls-2" d="M506,410l-4-5.87h-4.48V410h-4.85v-21h9.09a12,12,0,0,1,4.85.93,7.33,7.33,0,0,1,3.15,2.64,7.16,7.16,0,0,1-3.21,10.68l4.72,6.76Zm-1.23-16.11a5.16,5.16,0,0,0-3.33-.94h-4v7.31h4a5.1,5.1,0,0,0,3.33-.94,3.78,3.78,0,0,0,0-5.43"/><path class="cls-2" d="M521.6,409.62a11.22,11.22,0,0,1-3.74-1.75l1.65-3.67a10.88,10.88,0,0,0,3.22,1.59,11.78,11.78,0,0,0,3.72.61,5.93,5.93,0,0,0,3-.61,1.87,1.87,0,0,0,1-1.64,1.56,1.56,0,0,0-.59-1.24,4.27,4.27,0,0,0-1.5-.8c-.61-.2-1.44-.43-2.48-.67a35.05,35.05,0,0,1-3.92-1.12,6.45,6.45,0,0,1-2.63-1.84,5,5,0,0,1-1.09-3.37,5.92,5.92,0,0,1,1-3.31,6.75,6.75,0,0,1,3-2.35,12.3,12.3,0,0,1,4.87-.87,16.63,16.63,0,0,1,3.92.48,12,12,0,0,1,3.37,1.37l-1.5,3.7a11.65,11.65,0,0,0-5.83-1.64,5.62,5.62,0,0,0-3,.64,2,2,0,0,0-1,1.74,1.69,1.69,0,0,0,1.13,1.61,16.12,16.12,0,0,0,3.42,1,34.23,34.23,0,0,1,3.94,1.15,6.37,6.37,0,0,1,2.61,1.79,4.78,4.78,0,0,1,1.11,3.33,5.75,5.75,0,0,1-1,3.28,6.74,6.74,0,0,1-3,2.37,12.4,12.4,0,0,1-4.89.87,17.21,17.21,0,0,1-4.81-.69"/><rect class="cls-3" x="59.4" y="430.08" width="481.2" height="6.59"/></g></g></svg>